HIERARCHY
ROOT joint_Root
{
	OFFSET 0.0 0.0 0.0
	CHANNELS 6 Xposition Yposition Zposition Zrotation Xrotation Yrotation 
	JOINT Hips
	{
		OFFSET -17.1583 93.1646 452.98
		CHANNELS 6 Xposition Yposition Zposition Zrotation Xrotation Yrotation 
		JOINT Spine
		{
			OFFSET 15.7357 0.0 0.0
			CHANNELS 6 Xposition Yposition Zposition Zrotation Xrotation Yrotation 
			JOINT Chest
			{
				OFFSET 8.98455 -0.406207 0.0
				CHANNELS 6 Xposition Yposition Zposition Zrotation Xrotation Yrotation 
				JOINT Neck
				{
					OFFSET 16.3773 0.0 0.0
					CHANNELS 6 Xposition Yposition Zposition Zrotation Xrotation Yrotation 
					JOINT Head
					{
						OFFSET 6.45672 0.0 0.0
						CHANNELS 6 Xposition Yposition Zposition Zrotation Xrotation Yrotation 
						End Site
						{
							OFFSET 0.0 0.0 0.0
						}
					}
				}
				JOINT Shoulder_L
				{
					OFFSET 12.9942 -0.242716 4.98039
					CHANNELS 6 Xposition Yposition Zposition Zrotation Xrotation Yrotation 
					JOINT UpperArm_L
					{
						OFFSET 5.34809 0.0 0.0
						CHANNELS 6 Xposition Yposition Zposition Zrotation Xrotation Yrotation 
						JOINT LowerArm_L
						{
							OFFSET 24.3286 1.87007e-05 0.0
							CHANNELS 6 Xposition Yposition Zposition Zrotation Xrotation Yrotation 
							JOINT Hand_L
							{
								OFFSET 22.2916 0.0 0.0
								CHANNELS 6 Xposition Yposition Zposition Zrotation Xrotation Yrotation 
								End Site
								{
									OFFSET 0.0 0.0 0.0
								}
							}
						}
					}
				}
				JOINT Shoulder_R
				{
					OFFSET 12.9945 -0.242716 -4.98039
					CHANNELS 6 Xposition Yposition Zposition Zrotation Xrotation Yrotation 
					JOINT UpperArm_R
					{
						OFFSET -5.34813 0.0 0.0
						CHANNELS 6 Xposition Yposition Zposition Zrotation Xrotation Yrotation 
						JOINT LowerArm_R
						{
							OFFSET -24.3289 0.000322201 0.0
							CHANNELS 6 Xposition Yposition Zposition Zrotation Xrotation Yrotation 
							JOINT Hand_R
							{
								OFFSET -22.2915 -0.000108084 0.0
								CHANNELS 6 Xposition Yposition Zposition Zrotation Xrotation Yrotation 
								End Site
								{
									OFFSET 0.0 0.0 0.0
								}
							}
						}
					}
				}
			}
		}
		JOINT UpperLeg_L
		{
			OFFSET -2.19248 -6.46944 0.0
			CHANNELS 6 Xposition Yposition Zposition Zrotation Xrotation Yrotation 
			JOINT LowerLeg_L
			{
				OFFSET 39.0811 0.0 -1.23785e-05
				CHANNELS 6 Xposition Yposition Zposition Zrotation Xrotation Yrotation 
				JOINT Foot_L
				{
					OFFSET 40.9854 0.0 -1.26872e-05
					CHANNELS 6 Xposition Yposition Zposition Zrotation Xrotation Yrotation 
					JOINT Toes_L
					{
						OFFSET 11.7543 0.0 0.0
						CHANNELS 6 Xposition Yposition Zposition Zrotation Xrotation Yrotation 
						End Site
						{
							OFFSET 0.0 0.0 0.0
						}
					}
				}
			}
		}
		JOINT UpperLeg_R
		{
			OFFSET -2.19251 6.46944 0.0
			CHANNELS 6 Xposition Yposition Zposition Zrotation Xrotation Yrotation 
			JOINT LowerLeg_R
			{
				OFFSET -39.0811 -0.00228153 -0.0401928
				CHANNELS 6 Xposition Yposition Zposition Zrotation Xrotation Yrotation 
				JOINT Foot_R
				{
					OFFSET -40.9854 0.0 0.0
					CHANNELS 6 Xposition Yposition Zposition Zrotation Xrotation Yrotation 
					JOINT Toes_R
					{
						OFFSET -11.7543 0.0 0.0
						CHANNELS 6 Xposition Yposition Zposition Zrotation Xrotation Yrotation 
						End Site
						{
							OFFSET 0.0 0.0 0.0
						}
					}
				}
			}
		}
	}
}
MOTION
Frames:	4
Frame Time:	0.0333333
0.000000 0.000000 0.000000 0.000000 0.000000 -0.000000 197.243000 94.427800 -145.753000 90.676800 0.521518 -4.417290 15.735700 0.000005 -0.000001 127.240000 87.354300 -126.890000 8.984550 -0.406207 -0.000000 -3.565770 3.165770 0.799451 16.377300 -0.000001 -0.000001 -1.229260 0.307776 -1.251690 6.456720 -0.000001 -0.000000 2.583160 -1.471240 -1.412700 12.994200 -0.242716 4.980390 -92.565800 6.578790 -68.638000 5.348090 -0.000007 -0.000001 -63.261500 -5.635110 19.054500 24.328600 0.000019 0.000005 6.582060 33.842400 -11.707000 22.291600 -0.000001 0.000005 -10.902300 5.075380 5.672940 12.994500 -0.242716 -4.980390 89.290800 2.214070 -72.234500 -5.348130 -0.000001 -0.000004 -66.959600 29.020400 -18.284500 -24.328900 0.000322 -0.000009 0.652659 0.698859 -43.082700 -22.291500 -0.000108 -0.000004 1.970470 5.330490 -0.799557 -2.192480 -6.469440 -0.000000 -177.329000 0.778024 -24.266600 39.081100 -0.000007 -0.000012 0.097819 -0.112326 41.050600 40.985400 -0.000006 -0.000013 -8.362600 11.419500 -55.034400 11.754300 -0.000000 0.000003 0.001887 0.042633 -14.847400 -2.192510 6.469440 -0.000001 179.920000 4.490080 -179.823000 -39.081100 -0.002282 -0.040193 0.006355 -0.009302 18.045000 -40.985400 0.000008 0.000006 -3.935200 4.708540 -65.930300 -11.754300 -0.000006 -0.000006 0.002424 0.097314 -12.626800
0.000000 0.000000 0.000000 0.000000 0.000000 -0.000000 197.699000 94.583200 -143.201000 90.732700 -0.971205 -5.279740 15.735700 0.000005 -0.000001 135.601000 87.058600 -135.437000 8.984550 -0.406207 -0.000000 -3.660880 4.184400 0.461241 16.377300 -0.000001 -0.000001 -1.559200 0.426617 -1.380790 6.456720 -0.000001 -0.000000 2.408350 -1.819390 -1.429980 12.994200 -0.242716 4.980390 -92.440700 6.069440 -68.044200 5.348090 -0.000007 -0.000001 -60.940500 -6.718650 20.705100 24.328600 0.000019 0.000005 6.758150 30.959000 -12.972600 22.291600 -0.000001 0.000005 -9.347380 5.075690 5.663800 12.994500 -0.242716 -4.980390 89.511500 1.567780 -72.693700 -5.348130 -0.000001 -0.000004 -65.027100 29.875600 -22.057600 -24.328900 0.000322 -0.000009 0.738311 0.682751 -47.270100 -22.291500 -0.000108 -0.000004 1.649690 5.339580 -1.066890 -2.192480 -6.469440 -0.000000 -177.237000 -0.442138 -24.536400 39.081100 -0.000007 -0.000012 0.062874 -0.117697 28.111200 40.985400 -0.000006 -0.000013 -7.717730 12.919400 -55.739700 11.754300 -0.000000 0.000003 0.001933 0.044241 -14.782200 -2.192510 6.469440 -0.000001 178.911000 6.053850 -177.538000 -39.081100 -0.002282 -0.040193 0.009652 -0.024105 14.694600 -40.985400 0.000008 0.000006 -3.716840 7.334600 -63.884400 -11.754300 -0.000006 -0.000006 0.002417 0.069585 -13.750900
0.000000 0.000000 0.000000 0.000000 0.000000 -0.000000 198.095000 94.047400 -140.318000 90.247200 -1.953530 -5.599950 15.735700 0.000005 -0.000001 138.379000 86.696500 -138.180000 8.984550 -0.406207 -0.000000 -3.392160 4.917150 0.544151 16.377300 -0.000001 -0.000001 -2.042890 0.489616 -1.532870 6.456720 -0.000001 -0.000000 1.994280 -2.089510 -1.502300 12.994200 -0.242716 4.980390 -92.309900 5.691050 -67.865300 5.348090 -0.000007 -0.000001 -58.854500 -7.699480 21.420500 24.328600 0.000019 0.000005 6.674370 30.083300 -13.140400 22.291600 -0.000001 0.000005 -7.161510 5.062360 5.960570 12.994500 -0.242716 -4.980390 89.656400 1.125700 -73.025100 -5.348130 -0.000001 -0.000004 -63.121400 29.809500 -25.151700 -24.328900 0.000322 -0.000009 0.744328 0.596753 -51.340200 -22.291500 -0.000108 -0.000004 2.166080 5.343680 -1.187770 -2.192480 -6.469440 -0.000000 -176.780000 -2.260510 -23.046900 39.081100 -0.000007 -0.000012 0.034753 -0.146338 13.359600 40.985400 -0.000006 -0.000013 -8.755510 14.266400 -55.021400 11.754300 -0.000000 0.000003 0.002103 0.050850 -14.514200 -2.192510 6.469440 -0.000001 178.370000 7.222020 -175.080000 -39.081100 -0.002282 -0.040193 0.005373 -0.008851 12.972300 -40.985400 0.000008 0.000006 -3.777040 9.641360 -63.555700 -11.754300 -0.000006 -0.000006 0.001913 0.043500 -14.808600
0.000000 0.000000 0.000000 0.000000 0.000000 -0.000000 198.502000 92.990800 -137.094000 89.716900 -2.209480 -5.608370 15.735700 0.000005 -0.000001 136.868000 86.438000 -136.565000 8.984550 -0.406207 -0.000000 -2.914490 5.168550 0.739513 16.377300 -0.000001 -0.000001 -2.572580 0.540784 -1.845160 6.456720 -0.000001 -0.000000 1.285070 -2.197820 -1.419610 12.994200 -0.242716 4.980390 -92.394000 5.939430 -68.000100 5.348090 -0.000007 -0.000001 -56.522200 -8.666060 21.138400 24.328600 0.000019 0.000005 6.128800 30.317100 -12.009100 22.291600 -0.000001 0.000005 -4.778440 5.016170 6.962890 12.994500 -0.242716 -4.980390 89.654400 1.152420 -73.307500 -5.348130 -0.000001 -0.000004 -61.787600 28.749000 -27.268300 -24.328900 0.000322 -0.000009 -0.024258 -0.015980 -54.313700 -22.291500 -0.000108 -0.000004 3.075100 5.376450 -2.183750 -2.192480 -6.469440 -0.000000 -176.752000 -3.729190 -24.315800 39.081100 -0.000007 -0.000012 0.004625 -0.040845 6.461720 40.985400 -0.000006 -0.000013 -8.407420 13.685600 -58.628200 11.754300 -0.000000 0.000003 0.002020 0.047491 -14.650400 -2.192510 6.469440 -0.000001 177.801000 8.367950 -172.893000 -39.081100 -0.002282 -0.040193 -0.007236 0.045080 13.195400 -40.985400 0.000008 0.000006 -4.076270 11.357500 -64.402500 -11.754300 -0.000006 -0.000006 0.000003 0.000055 -16.571600
